<svg xmlns="http://www.w3.org/2000/svg" width="115" height="16" viewBox="0 0 115 16">
  <g>
    <polygon points="22.515 15.621 35.294 .022 36.838 .022 36.838 15.621 34.6 15.621 34.6 4.14 25.245 15.621"/>
    <polygon points="2.35 13.495 9.265 13.495 9.265 15.621 .09 15.621 .09 .022 2.35 .022"/>
    <polygon points="21.351 6.132 21.351 8.258 14.413 8.258 14.413 13.495 21.351 13.495 21.351 15.621 12.175 15.621 12.175 .022 21.351 .022 21.351 2.104 14.413 2.104 14.413 6.132"/>
    <polygon points="42.903 4.14 42.903 15.621 40.665 15.621 40.665 .022 42.254 .022 51.609 11.459 51.609 .022 53.847 .022 53.847 15.621 52.303 15.621"/>
    <path d="M63.7390436,6.55742268 C64.8132972,6.55742268 65.3951845,6.28885929 65.7980296,5.86363393 C66.1561141,5.46078885 66.4246775,4.94604236 66.4246775,4.31939446 C66.4246775,3.69274656 66.1561141,3.17800007 65.7980296,2.77515499 C65.3951845,2.32754935 64.8132972,2.08136624 63.7390436,2.08136624 L60.1581985,2.08136624 L60.1581985,6.53504239 L63.7390436,6.53504239 L63.7390436,6.55742268 Z M60.1805788,8.70592977 L60.1805788,15.621437 L57.9425505,15.621437 L57.9425505,0.0223802822 L63.8733253,0.0223802822 C65.3728042,0.0223802822 66.3799169,0.380464797 67.1408465,1.05187326 C68.0584381,1.85756342 68.685086,3.04371838 68.685086,4.36415502 C68.685086,5.68459167 68.1031987,6.89312691 67.1408465,7.67643679 C66.3575366,8.34784525 65.4175648,8.70592977 63.8733253,8.70592977 L60.1805788,8.70592977 Z"/>
    <polygon points="74.012 13.495 80.949 13.495 80.949 15.621 71.774 15.621 71.774 .022 74.012 .022"/>
    <path d="M84.5750863,13.7862538 C83.5903539,12.68962 82.963706,11.2572819 82.963706,9.15353541 L82.963706,0.0223802822 L85.2017342,0.0223802822 L85.2017342,9.31019738 C85.2017342,10.787296 85.5598188,11.7048876 86.1864667,12.3986763 C86.9697765,13.2715073 88.1335512,13.8086341 89.4539878,13.8086341 C90.7744245,13.8086341 91.9158189,13.2938876 92.721509,12.3986763 C93.3481569,11.7048876 93.7062415,10.787296 93.7062415,9.31019738 L93.7062415,0.0223802822 L95.9442697,0.0223802822 L95.9442697,9.19829597 C95.9442697,11.3020425 95.3176218,12.7343806 94.3328894,13.8310144 C93.1467344,15.1290707 91.4234527,15.8900003 89.4763681,15.8900003 C87.5292836,15.8900003 85.7612413,15.0619299 84.5750863,13.7862538"/>
    <polygon points="108.142 12.264 106.553 12.264 101.987 5.103 101.987 15.621 99.749 15.621 99.749 .022 101.338 .022 107.336 9.512 113.379 .022 114.945 .022 114.945 15.621 112.707 15.621 112.707 5.103"/>
  </g>
</svg>