<svg preserveAspectRatio="xMinYMin slice" viewBox="0 0 900 900" xmlns="http://www.w3.org/2000/svg"><g fill="none"><path d="M900 421.2c0 251.8-168.1 462.9-425.9 472.5-40.8 1.5-114.9 19.7-193.3-8.4-14.5-5.2-58-30.3-82.9-58C70 685 0 608 0 421.2 0 235.9 102.7 74.7 272.5 21.6c84.7-26.5 136.1-20 204.2-20 226.6 0 380.8 151.8 414.3 330.1 5.4 29.1 9 58.9 9 89.5z" fill="#F0EFEF"/><path d="M259.6 53.2c41.8-18.2 67.8-28 99-34.7 37.9-8.2 77.4-6.8 117.3-5.6 68.6 2.2 125.8 19.4 179.4 44.8 92 43.3 169.6 110.9 204 198.9 10.8 27.6 17.9 56.4 21.8 85.7 3.8 28.8 5.7 58.2 5 88.2-1.2 49.4-5.7 96.8-20.4 140-27 79.6-70.5 136.7-134.1 193.4-73 65.1-158.8 117-265.7 124.5-37.8 2.7-106.9 18.2-177.8-9-14.4-5.5-53.5-28.4-75.5-54.6-36.6-43.5-65-79.2-94.4-116.2C49.5 621.9 9.8 550.8 9.9 422.3c.1-165.4 97-302.4 249.7-369.1z" fill="#E4E9EE"/><path d="M246.8 84.8c46.4-25.5 67.3-38.9 101.2-50.3 39.3-13.3 85.6-12.9 127.3-10.3 68.6 4.3 121.2 25 174.5 51.5 89 44.1 174.2 104.4 204.6 192.2 9.5 27.7 14.8 56.2 17.1 85.2 2.2 28.5 2.4 57.5 1 86.9-2.4 48.7-4.8 94.9-21.4 135.7-31 76.1-74.7 116.9-142.6 174-73.9 62.2-149.8 122.7-250.6 133.6-34.8 3.8-98.8 16.5-162.4-9.6-14.2-5.8-48.9-26.7-68.1-51.1-35.1-44.7-59.2-79.5-90.4-118.2C64.6 614.6 19.8 549.5 19.9 423.8c.1-146 90.3-263.9 226.9-339z" fill="#D9E4EE"/><path d="M234 116.4c50.9-33.5 66.9-49.6 103.3-65.8 40.8-18.2 93.7-19.1 137.3-15 68.7 6.4 116.6 30.6 169.6 58.1 86.1 44.7 178.8 97.9 205.2 185.4 8.3 27.7 11.7 56 12.3 84.6.5 28.3-.9 56.8-3 85.7-3.6 48-3.9 93-22.4 131.3-35.1 72.7-78.8 97.2-151 154.6-74.7 59.4-140.8 128.4-235.4 142.7-31.8 4.8-90.7 14.5-147-10.2-14.1-6.2-44.3-25.1-60.6-47.6-33.5-46.2-53.4-79.9-86.5-120.2C79.7 607.1 29.7 547.9 30 425c.1-126.3 82.2-228.3 204-308.6z" fill="#CDDEED"/><path d="M221.2 148c54.8-42.3 66.5-60.2 105.4-81.4 42.4-23 101.9-25.2 147.2-19.8 68.8 8.3 112 36.1 164.7 64.8 83.3 45.3 183.5 91.3 205.8 178.7 7 27.7 8.6 55.8 7.6 84.1-1.1 28-4.2 56.2-7 84.4-4.8 47.3-3.1 91.1-23.4 127C782.3 655 738.7 663.4 662 721c-75.4 56.7-131.7 133.9-220.3 151.9-28.8 5.9-82.4 12.4-131.5-10.8-13.9-6.6-39.5-23.6-53.2-44.2-31.8-47.8-47.6-80.3-82.6-122.3-79.8-96-134.9-149.2-134.6-269.3.3-106.6 73.1-194.7 181.4-278.3z" fill="#C1D9EC"/><path d="M208.4 179.6c58-51.9 66.2-70.8 107.6-96.9 44-27.8 110-31.5 157.2-24.5 68.9 10.2 107.5 41.6 159.8 71.5 80.5 45.9 188.1 84.8 206.4 171.9 5.8 27.7 5.5 55.6 2.8 83.5-2.7 27.7-7.5 55.5-11 83.1-6 46.5-2.3 89.2-24.4 122.7-43.4 65.7-86.7 58.2-167.9 115.9-76.1 54.1-122.7 139.3-205.2 161-25.8 6.8-74.1 10-116.1-11.5-13.7-7-34.6-22.1-45.7-40.7-29.8-49.5-41.8-80.7-78.6-124.3C109.7 592.2 49.5 545 50 427.6c.1-87 62.5-162.3 158.4-248z" fill="#B5D3EB"/><path d="M195.6 211.2c60.2-62.3 65.9-81.3 109.7-112.5 45.6-32.5 118.2-37.8 167.1-29.2 69 12 103 47 155 78.1 77.8 46.3 192.7 78.3 207 165.2 4.5 27.7 2.4 55.4-1.9 83-4.4 27.5-10.8 54.8-15 81.8-7.2 45.8-1.5 87.2-25.4 118.3-47.7 62.1-90.6 38.8-176.4 96.5-76.6 51.5-113.8 144.4-190 170.1-22.8 7.7-65.7 7.5-100.7-12.1-13.5-7.5-29.5-20.7-38.3-37.2-27.4-51.5-35.9-81-74.7-126.4-87.3-102.2-152.6-143.5-152.1-258 .2-67.3 51.2-130.1 135.7-217.6z" fill="#AACEEB"/><path d="M471.7 80.8c69.1 13.8 98.4 52.5 150.1 84.8 74.9 46.9 197.3 71.7 207.6 158.4 6.6 55.4-15.8 110.2-25.7 162.9-8.5 45.1-.8 85.2-26.4 114-52 58.4-94.4 19.6-184.8 77.1-77.2 49.1-105 149.3-174.9 179.3-29.2 12.6-95.8-1.4-116.1-46.4-24.2-53.7-30.1-81.4-70.7-128.4-91-105.3-161.4-140.6-160.9-252.4.2-47.6 38.6-98.1 112.8-187.3 61.1-73.4 65.7-91.7 111.9-128C342 77.6 421 70.7 471.7 80.8z" fill="#9EC8EA"/><path d="M466.3 93.3c75.6 12.4 106 55 156.7 86.1 72.2 44.3 181.6 68.6 193.8 146.4 7.9 50.4-10.7 100.5-18 150.4-7.2 48.9-11.4 91.4-46.2 125.9-50.6 50.1-88.1 22.4-168.9 75.4C513 723.8 485.9 817 419.2 839.7c-36.6 12.4-100.6-6.8-125-59.2-22.6-48.8-29.3-75.1-66-117.7-81.8-95-145.9-130-145.4-233.9.2-48.6 35.7-99.2 103.9-181.7 55.8-67.5 64.3-86.9 109.3-120.6C342.2 92.1 416 85 466.3 93.3z" fill="#A6BBDF"/><path d="M460.9 105.8c82.1 10.9 113.5 57.5 163.4 87.4 69.4 41.7 166 65.6 179.9 134.4 9.2 45.5-5.3 90.9-10.4 137.9-5.7 52.9-21.5 97.7-66 137.8-47.6 43-81.8 25.3-152.9 73.6-64.1 43.6-91.4 128-154.1 145.1-44.2 12.1-105.4-12.1-133.8-72-20.8-43.9-28.4-68.7-61.2-107-72.6-84.8-130.3-119.4-129.9-215.4.2-49.6 32.9-100.3 95.1-176 50.5-61.5 63-82.1 106.8-113.2 44.5-31.9 113.3-39.2 163.1-32.6z" fill="#AFAFD4"/><path d="M455.4 118.3c88.7 9.1 121 60 170.1 88.6 66.6 39.2 150.5 62.5 166.1 122.4 10.6 40.6.4 81.4-2.8 125.4-4.1 56.9-31.4 104.2-85.8 149.7-43.9 36.7-75.5 28.2-137 71.9-57.5 40.9-85.4 115.4-143.8 128-52.1 11.3-110.1-17.5-142.7-84.8-18.9-39.1-27.5-62.4-56.4-96.3-63.4-74.5-114.7-108.7-114.4-196.9.1-50.6 30-101.4 86.2-170.4 45.3-55.5 61.6-77.2 104.2-105.8 43.4-29.2 107.1-36.9 156.3-31.8z" fill="#B7A2C9"/><path d="M450 130.7c95.3 7.2 128.5 62.5 176.8 89.9 63.9 36.6 135.1 59.5 152.3 110.3 12.1 35.6 6.3 71.9 4.9 112.9-2.2 60.9-40.7 111.3-105.6 161.6-39.8 30.9-69.2 31.2-121 70.2-50.9 38.3-79.6 102-133.4 110.9-60.1 9.9-114.7-23-151.5-97.5-16.9-34.3-26.7-56-51.6-85.7-54.2-64.3-99.1-98.1-98.9-178.5.1-51.6 27.1-102.5 77.3-164.7 40-49.5 60.3-72.4 101.6-98.4 41.8-26.3 100.4-34.6 149.1-31z" fill="#BF96BE"/><path d="M444.6 143.2c102 5 136 65 183.4 91.2 61.1 34.1 119.9 56.4 138.5 98.3 13.7 30.7 12.5 62.4 12.5 100.4 0 64.9-49.6 119.1-125.3 173.5-35.4 25.4-62.7 34.3-105 68.4-44.3 35.7-73.8 88.2-123.1 93.8-68.2 7.7-119.2-28.5-160.4-110.3-14.9-29.5-25.8-49.7-46.9-75-45-54-83.5-87.5-83.4-160 .1-52.7 24.2-103.7 68.4-159.1 34.8-43.5 58.9-67.5 99.1-91 40.5-23.6 94.1-32.5 142.2-30.2z" fill="#C789B3"/><path d="M439.2 155.7c108.6 2.6 143.6 67.5 190.1 92.5 58.4 31.5 104.9 53.3 124.7 86.3 15.4 25.7 18.7 52.9 20.1 87.9 2.7 68.9-57.6 128.1-145.1 185.4-30.9 20.2-56.2 37.5-89.1 66.7-37.5 33.3-67.9 74-112.7 76.7-76.3 4.5-123.4-34.1-169.2-123.1-12.8-24.8-25-43.3-42.1-64.3C180 520 147.9 487 148 422.3c0-53.7 21.4-104.8 59.5-153.4 29.5-37.6 57.6-62.7 96.5-83.6 39.1-21 87.6-30.7 135.2-29.6z" fill="#D07DA8"/><path d="M769.1 411.7c5.8 72.8-64.5 139.4-164.9 197.3-60.5 34.9-103.7 124.6-175.5 124.6-84.2 0-127.2-40-178.1-135.9-32.2-60.7-89.7-91.6-89.7-176.6 0-137.1 116.4-252.8 272.8-252.9 115.2-.1 151.1 70 196.8 93.8 102.1 53 132.9 79.1 138.6 149.7z" fill="#D8709D"/><path d="M440.2 184.7c107.1-.1 141.9 64.8 185.2 88 93.6 50.1 124.2 75 129.1 141.9 5 68.9-59.1 130.7-152 184.7-55.8 32.4-96.5 112.4-165 112.4-79.1 0-121.1-37.6-168.8-123.9-31.2-56.4-82.7-88.2-82.7-165.5-.1-130.8 108.3-237.5 254.2-237.6z" fill="#C5669A"/><path d="M446.6 201.2c99-.1 132.7 59.5 173.6 82.1 85.1 47.1 115.5 70.9 119.6 134.2 4.2 65-53.8 122-139 172.1-51 29.9-89.3 100.2-154.6 100.2-73.9 0-115.1-35.2-159.5-111.9-30.1-52.1-75.7-84.7-75.7-154.3-.1-124.6 100.3-222.3 235.6-222.4z" fill="#B25D97"/><path d="M453.1 217.8c90.8 0 123.5 54.3 162 76.3 76.7 44 106.8 66.7 110 126.4 3.3 61.2-48.4 113.4-126.1 159.5-46.3 27.5-82.1 88.1-144.1 88.1-68.8 0-109.2-32.7-150.3-100-29.2-47.7-68.7-81.2-68.7-143.2.1-118.5 92.4-207.1 217.2-207.1z" fill="#9F5394"/><path d="M459.5 234.3c82.7 0 114.3 49 150.4 70.5 68.4 40.8 98.1 62.6 100.5 118.7 2.5 57.3-43 104.7-113.1 146.9-41.6 25-74.9 75.9-133.7 75.9-63.6 0-103.3-30.2-141-88-28.3-43.4-61.7-77.7-61.7-132 .1-112.4 84.4-192 198.6-192z" fill="#8D4A91"/><path d="M466 250.8c74.6 0 105.2 43.6 138.8 64.7 60 37.6 89.4 58.5 91 110.9 1.7 53.4-37.6 96.1-100.2 134.3-36.8 22.5-67.7 63.7-123.2 63.7-58.5 0-97.6-27.7-131.7-76-27.5-39-54.7-74.3-54.7-120.9 0-106.1 76.3-176.7 180-176.7z" fill="#7A408E"/><path d="M472.4 267.3c66.5 0 96.1 38.2 127.3 58.9 51.7 34.3 80.7 54.4 81.5 103.1.8 49.6-32.2 87.4-87.2 121.7-32.1 20-60.5 51.6-112.8 51.6-53.3 0-92.1-25-122.4-64-26.8-34.5-47.7-70.8-47.7-109.7-.1-100 68.2-161.5 161.3-161.6z" fill="#67378B"/><path d="M666.5 432.3c0 45.7-26.8 78.7-74.3 109.1-27.3 17.5-53.3 39.4-102.4 39.4-96.1 0-153.8-87.9-153.8-150.6 0-93.8 60.2-146.3 142.8-146.3 58.4 0 87 32.8 115.7 53.1 43.6 30.8 72 50.2 72 95.3z" fill="#542D88"/></g></svg>